ISO-10303-21;
HEADER;
/* Generated by software containing ST-Developer
 * from STEP Tools, Inc. (www.steptools.com) 
 */

FILE_DESCRIPTION(
/* description */ (''),
/* implementation_level */ '2;1');

FILE_NAME(
/* name */ 'Bottom.step',
/* time_stamp */ '2026-06-10T20:50:01+05:30',
/* author */ (''),
/* organization */ (''),
/* preprocessor_version */ 'ST-DEVELOPER v20.1',
/* originating_system */ 'Autodesk Translation Framework v15.8.0.0',
/* authorisation */ '');

FILE_SCHEMA (('AUTOMOTIVE_DESIGN { 1 0 10303 214 3 1 1 }'));
ENDSEC;

DATA;
#10=MECHANICAL_DESIGN_GEOMETRIC_PRESENTATION_REPRESENTATION('',(#13),#1043);
#11=SHAPE_REPRESENTATION_RELATIONSHIP('SRR','None',#1050,#12);
#12=ADVANCED_BREP_SHAPE_REPRESENTATION('',(#14),#1042);
#13=STYLED_ITEM('',(#1060),#14);
#14=MANIFOLD_SOLID_BREP('Body1',#543);
#15=FACE_BOUND('',#77,.T.);
#16=FACE_BOUND('',#80,.T.);
#17=FACE_BOUND('',#83,.T.);
#18=FACE_BOUND('',#86,.T.);
#19=FACE_BOUND('',#98,.T.);
#20=FACE_BOUND('',#99,.T.);
#21=FACE_BOUND('',#100,.T.);
#22=FACE_BOUND('',#101,.T.);
#23=FACE_BOUND('',#113,.T.);
#24=FACE_BOUND('',#114,.T.);
#25=FACE_BOUND('',#115,.T.);
#26=FACE_BOUND('',#116,.T.);
#27=PLANE('',#559);
#28=PLANE('',#563);
#29=PLANE('',#567);
#30=PLANE('',#571);
#31=PLANE('',#577);
#32=PLANE('',#578);
#33=PLANE('',#579);
#34=PLANE('',#580);
#35=PLANE('',#583);
#36=PLANE('',#584);
#37=PLANE('',#589);
#38=PLANE('',#591);
#39=PLANE('',#593);
#40=PLANE('',#594);
#41=PLANE('',#595);
#42=PLANE('',#596);
#43=PLANE('',#597);
#44=PLANE('',#598);
#45=FACE_OUTER_BOUND('',#75,.T.);
#46=FACE_OUTER_BOUND('',#76,.T.);
#47=FACE_OUTER_BOUND('',#78,.T.);
#48=FACE_OUTER_BOUND('',#79,.T.);
#49=FACE_OUTER_BOUND('',#81,.T.);
#50=FACE_OUTER_BOUND('',#82,.T.);
#51=FACE_OUTER_BOUND('',#84,.T.);
#52=FACE_OUTER_BOUND('',#85,.T.);
#53=FACE_OUTER_BOUND('',#87,.T.);
#54=FACE_OUTER_BOUND('',#88,.T.);
#55=FACE_OUTER_BOUND('',#89,.T.);
#56=FACE_OUTER_BOUND('',#90,.T.);
#57=FACE_OUTER_BOUND('',#91,.T.);
#58=FACE_OUTER_BOUND('',#92,.T.);
#59=FACE_OUTER_BOUND('',#93,.T.);
#60=FACE_OUTER_BOUND('',#94,.T.);
#61=FACE_OUTER_BOUND('',#95,.T.);
#62=FACE_OUTER_BOUND('',#96,.T.);
#63=FACE_OUTER_BOUND('',#97,.T.);
#64=FACE_OUTER_BOUND('',#102,.T.);
#65=FACE_OUTER_BOUND('',#103,.T.);
#66=FACE_OUTER_BOUND('',#104,.T.);
#67=FACE_OUTER_BOUND('',#105,.T.);
#68=FACE_OUTER_BOUND('',#106,.T.);
#69=FACE_OUTER_BOUND('',#107,.T.);
#70=FACE_OUTER_BOUND('',#108,.T.);
#71=FACE_OUTER_BOUND('',#109,.T.);
#72=FACE_OUTER_BOUND('',#110,.T.);
#73=FACE_OUTER_BOUND('',#111,.T.);
#74=FACE_OUTER_BOUND('',#112,.T.);
#75=EDGE_LOOP('',(#357,#358,#359,#360));
#76=EDGE_LOOP('',(#361));
#77=EDGE_LOOP('',(#362));
#78=EDGE_LOOP('',(#363,#364,#365,#366));
#79=EDGE_LOOP('',(#367));
#80=EDGE_LOOP('',(#368));
#81=EDGE_LOOP('',(#369,#370,#371,#372));
#82=EDGE_LOOP('',(#373));
#83=EDGE_LOOP('',(#374));
#84=EDGE_LOOP('',(#375,#376,#377,#378));
#85=EDGE_LOOP('',(#379));
#86=EDGE_LOOP('',(#380));
#87=EDGE_LOOP('',(#381,#382,#383,#384));
#88=EDGE_LOOP('',(#385,#386,#387,#388));
#89=EDGE_LOOP('',(#389,#390,#391,#392));
#90=EDGE_LOOP('',(#393,#394,#395,#396));
#91=EDGE_LOOP('',(#397,#398,#399,#400));
#92=EDGE_LOOP('',(#401,#402,#403,#404));
#93=EDGE_LOOP('',(#405,#406,#407,#408,#409,#410,#411,#412));
#94=EDGE_LOOP('',(#413,#414,#415,#416));
#95=EDGE_LOOP('',(#417,#418,#419,#420));
#96=EDGE_LOOP('',(#421,#422,#423,#424));
#97=EDGE_LOOP('',(#425,#426,#427,#428,#429,#430,#431,#432,#433,#434,#435,
#436,#437,#438,#439,#440));
#98=EDGE_LOOP('',(#441));
#99=EDGE_LOOP('',(#442));
#100=EDGE_LOOP('',(#443));
#101=EDGE_LOOP('',(#444));
#102=EDGE_LOOP('',(#445,#446,#447,#448));
#103=EDGE_LOOP('',(#449,#450,#451,#452));
#104=EDGE_LOOP('',(#453,#454,#455,#456));
#105=EDGE_LOOP('',(#457,#458,#459,#460));
#106=EDGE_LOOP('',(#461,#462,#463,#464));
#107=EDGE_LOOP('',(#465,#466,#467,#468));
#108=EDGE_LOOP('',(#469,#470,#471,#472));
#109=EDGE_LOOP('',(#473,#474,#475,#476));
#110=EDGE_LOOP('',(#477,#478,#479,#480));
#111=EDGE_LOOP('',(#481,#482,#483,#484,#485,#486,#487,#488));
#112=EDGE_LOOP('',(#489,#490,#491,#492,#493,#494,#495,#496));
#113=EDGE_LOOP('',(#497));
#114=EDGE_LOOP('',(#498));
#115=EDGE_LOOP('',(#499));
#116=EDGE_LOOP('',(#500));
#117=LINE('',#755,#165);
#118=LINE('',#781,#166);
#119=LINE('',#807,#167);
#120=LINE('',#833,#168);
#121=LINE('',#857,#169);
#122=LINE('',#878,#170);
#123=LINE('',#899,#171);
#124=LINE('',#920,#172);
#125=LINE('',#925,#173);
#126=LINE('',#927,#174);
#127=LINE('',#929,#175);
#128=LINE('',#930,#176);
#129=LINE('',#934,#177);
#130=LINE('',#936,#178);
#131=LINE('',#938,#179);
#132=LINE('',#939,#180);
#133=LINE('',#941,#181);
#134=LINE('',#943,#182);
#135=LINE('',#945,#183);
#136=LINE('',#947,#184);
#137=LINE('',#949,#185);
#138=LINE('',#950,#186);
#139=LINE('',#953,#187);
#140=LINE('',#955,#188);
#141=LINE('',#956,#189);
#142=LINE('',#966,#190);
#143=LINE('',#970,#191);
#144=LINE('',#972,#192);
#145=LINE('',#973,#193);
#146=LINE('',#978,#194);
#147=LINE('',#982,#195);
#148=LINE('',#985,#196);
#149=LINE('',#987,#197);
#150=LINE('',#989,#198);
#151=LINE('',#990,#199);
#152=LINE('',#998,#200);
#153=LINE('',#1002,#201);
#154=LINE('',#1003,#202);
#155=LINE('',#1011,#203);
#156=LINE('',#1015,#204);
#157=LINE('',#1016,#205);
#158=LINE('',#1026,#206);
#159=LINE('',#1027,#207);
#160=LINE('',#1030,#208);
#161=LINE('',#1031,#209);
#162=LINE('',#1034,#210);
#163=LINE('',#1035,#211);
#164=LINE('',#1037,#212);
#165=VECTOR('',#603,2.3571675);
#166=VECTOR('',#612,2.35716749999999);
#167=VECTOR('',#621,2.3571675);
#168=VECTOR('',#630,2.35716749999999);
#169=VECTOR('',#637,1.705185);
#170=VECTOR('',#640,1.705185);
#171=VECTOR('',#643,1.705185);
#172=VECTOR('',#646,1.705185);
#173=VECTOR('',#651,10.2308);
#174=VECTOR('',#652,10.029);
#175=VECTOR('',#653,10.2308);
#176=VECTOR('',#654,10.029);
#177=VECTOR('',#657,10.2308);
#178=VECTOR('',#658,10.029);
#179=VECTOR('',#659,10.2308);
#180=VECTOR('',#660,10.029);
#181=VECTOR('',#663,10.0305);
#182=VECTOR('',#664,10.0305);
#183=VECTOR('',#665,10.2308);
#184=VECTOR('',#666,10.0305);
#185=VECTOR('',#667,10.2308);
#186=VECTOR('',#668,10.0305);
#187=VECTOR('',#671,10.0305);
#188=VECTOR('',#672,10.2308);
#189=VECTOR('',#673,10.0305);
#190=VECTOR('',#676,10.2308);
#191=VECTOR('',#681,10.029);
#192=VECTOR('',#682,10.2308);
#193=VECTOR('',#683,10.029);
#194=VECTOR('',#688,10.029);
#195=VECTOR('',#691,10.0305);
#196=VECTOR('',#694,10.0305);
#197=VECTOR('',#695,10.029);
#198=VECTOR('',#696,10.0305);
#199=VECTOR('',#697,10.029);
#200=VECTOR('',#698,10.2308);
#201=VECTOR('',#703,10.2308);
#202=VECTOR('',#704,10.0305);
#203=VECTOR('',#705,10.2308);
#204=VECTOR('',#710,10.2308);
#205=VECTOR('',#711,10.029);
#206=VECTOR('',#716,10.029);
#207=VECTOR('',#717,10.2308);
#208=VECTOR('',#720,10.0305);
#209=VECTOR('',#721,10.2308);
#210=VECTOR('',#724,10.029);
#211=VECTOR('',#725,10.2308);
#212=VECTOR('',#728,10.0305);
#213=ELLIPSE('',#557,2.3571675,2.356815);
#214=ELLIPSE('',#558,2.3571675,2.356815);
#215=ELLIPSE('',#560,1.705185,1.70493);
#216=ELLIPSE('',#561,2.35716749999999,2.35681499999999);
#217=ELLIPSE('',#562,2.35716749999999,2.35681499999999);
#218=ELLIPSE('',#564,1.705185,1.70493);
#219=ELLIPSE('',#565,2.3571675,2.356815);
#220=ELLIPSE('',#566,2.3571675,2.356815);
#221=ELLIPSE('',#568,1.705185,1.70493);
#222=ELLIPSE('',#569,2.35716749999999,2.35681499999999);
#223=ELLIPSE('',#570,2.35716749999999,2.35681499999999);
#224=ELLIPSE('',#572,1.705185,1.70493);
#225=ELLIPSE('',#573,1.705185,1.70493);
#226=ELLIPSE('',#574,1.705185,1.70493);
#227=ELLIPSE('',#575,1.705185,1.70493);
#228=ELLIPSE('',#576,1.705185,1.70493);
#229=ELLIPSE('',#581,5.01525,5.0145);
#230=ELLIPSE('',#582,5.01525,5.0145);
#231=ELLIPSE('',#585,5.01525,5.0145);
#232=ELLIPSE('',#586,5.01525,5.0145);
#233=ELLIPSE('',#587,5.01525,5.0145);
#234=ELLIPSE('',#588,5.01525,5.0145);
#235=ELLIPSE('',#590,5.01525,5.0145);
#236=ELLIPSE('',#592,5.01525,5.0145);
#237=VERTEX_POINT('',#752);
#238=VERTEX_POINT('',#754);
#239=VERTEX_POINT('',#758);
#240=VERTEX_POINT('',#778);
#241=VERTEX_POINT('',#780);
#242=VERTEX_POINT('',#784);
#243=VERTEX_POINT('',#804);
#244=VERTEX_POINT('',#806);
#245=VERTEX_POINT('',#810);
#246=VERTEX_POINT('',#830);
#247=VERTEX_POINT('',#832);
#248=VERTEX_POINT('',#836);
#249=VERTEX_POINT('',#856);
#250=VERTEX_POINT('',#877);
#251=VERTEX_POINT('',#898);
#252=VERTEX_POINT('',#919);
#253=VERTEX_POINT('',#923);
#254=VERTEX_POINT('',#924);
#255=VERTEX_POINT('',#926);
#256=VERTEX_POINT('',#928);
#257=VERTEX_POINT('',#932);
#258=VERTEX_POINT('',#933);
#259=VERTEX_POINT('',#935);
#260=VERTEX_POINT('',#937);
#261=VERTEX_POINT('',#942);
#262=VERTEX_POINT('',#944);
#263=VERTEX_POINT('',#946);
#264=VERTEX_POINT('',#948);
#265=VERTEX_POINT('',#952);
#266=VERTEX_POINT('',#954);
#267=VERTEX_POINT('',#963);
#268=VERTEX_POINT('',#965);
#269=VERTEX_POINT('',#969);
#270=VERTEX_POINT('',#971);
#271=VERTEX_POINT('',#975);
#272=VERTEX_POINT('',#977);
#273=VERTEX_POINT('',#979);
#274=VERTEX_POINT('',#981);
#275=VERTEX_POINT('',#984);
#276=VERTEX_POINT('',#986);
#277=VERTEX_POINT('',#988);
#278=VERTEX_POINT('',#997);
#279=VERTEX_POINT('',#1001);
#280=VERTEX_POINT('',#1010);
#281=VERTEX_POINT('',#1014);
#282=VERTEX_POINT('',#1025);
#283=VERTEX_POINT('',#1029);
#284=VERTEX_POINT('',#1033);
#285=EDGE_CURVE('',#237,#237,#213,.T.);
#286=EDGE_CURVE('',#237,#238,#117,.T.);
#287=EDGE_CURVE('',#238,#238,#214,.T.);
#288=EDGE_CURVE('',#239,#239,#215,.T.);
#289=EDGE_CURVE('',#240,#240,#216,.T.);
#290=EDGE_CURVE('',#240,#241,#118,.T.);
#291=EDGE_CURVE('',#241,#241,#217,.T.);
#292=EDGE_CURVE('',#242,#242,#218,.T.);
#293=EDGE_CURVE('',#243,#243,#219,.T.);
#294=EDGE_CURVE('',#243,#244,#119,.T.);
#295=EDGE_CURVE('',#244,#244,#220,.T.);
#296=EDGE_CURVE('',#245,#245,#221,.T.);
#297=EDGE_CURVE('',#246,#246,#222,.T.);
#298=EDGE_CURVE('',#246,#247,#120,.T.);
#299=EDGE_CURVE('',#247,#247,#223,.T.);
#300=EDGE_CURVE('',#248,#248,#224,.T.);
#301=EDGE_CURVE('',#239,#249,#121,.T.);
#302=EDGE_CURVE('',#249,#249,#225,.T.);
#303=EDGE_CURVE('',#245,#250,#122,.T.);
#304=EDGE_CURVE('',#250,#250,#226,.T.);
#305=EDGE_CURVE('',#242,#251,#123,.T.);
#306=EDGE_CURVE('',#251,#251,#227,.T.);
#307=EDGE_CURVE('',#248,#252,#124,.T.);
#308=EDGE_CURVE('',#252,#252,#228,.T.);
#309=EDGE_CURVE('',#253,#254,#125,.T.);
#310=EDGE_CURVE('',#253,#255,#126,.T.);
#311=EDGE_CURVE('',#256,#255,#127,.T.);
#312=EDGE_CURVE('',#254,#256,#128,.T.);
#313=EDGE_CURVE('',#257,#258,#129,.T.);
#314=EDGE_CURVE('',#259,#257,#130,.T.);
#315=EDGE_CURVE('',#260,#259,#131,.T.);
#316=EDGE_CURVE('',#258,#260,#132,.T.);
#317=EDGE_CURVE('',#258,#253,#133,.T.);
#318=EDGE_CURVE('',#261,#254,#134,.T.);
#319=EDGE_CURVE('',#262,#261,#135,.T.);
#320=EDGE_CURVE('',#263,#262,#136,.T.);
#321=EDGE_CURVE('',#264,#263,#137,.T.);
#322=EDGE_CURVE('',#257,#264,#138,.T.);
#323=EDGE_CURVE('',#265,#259,#139,.T.);
#324=EDGE_CURVE('',#266,#265,#140,.T.);
#325=EDGE_CURVE('',#260,#266,#141,.T.);
#326=EDGE_CURVE('',#261,#267,#229,.T.);
#327=EDGE_CURVE('',#267,#268,#142,.T.);
#328=EDGE_CURVE('',#268,#262,#230,.T.);
#329=EDGE_CURVE('',#269,#267,#143,.T.);
#330=EDGE_CURVE('',#270,#269,#144,.T.);
#331=EDGE_CURVE('',#268,#270,#145,.T.);
#332=EDGE_CURVE('',#271,#264,#231,.T.);
#333=EDGE_CURVE('',#271,#272,#146,.T.);
#334=EDGE_CURVE('',#273,#272,#232,.T.);
#335=EDGE_CURVE('',#273,#274,#147,.T.);
#336=EDGE_CURVE('',#269,#274,#233,.T.);
#337=EDGE_CURVE('',#256,#275,#148,.T.);
#338=EDGE_CURVE('',#275,#276,#149,.T.);
#339=EDGE_CURVE('',#276,#277,#150,.T.);
#340=EDGE_CURVE('',#277,#265,#151,.T.);
#341=EDGE_CURVE('',#274,#278,#152,.T.);
#342=EDGE_CURVE('',#278,#270,#234,.T.);
#343=EDGE_CURVE('',#279,#273,#153,.T.);
#344=EDGE_CURVE('',#278,#279,#154,.T.);
#345=EDGE_CURVE('',#272,#280,#155,.T.);
#346=EDGE_CURVE('',#280,#279,#235,.T.);
#347=EDGE_CURVE('',#281,#271,#156,.T.);
#348=EDGE_CURVE('',#280,#281,#157,.T.);
#349=EDGE_CURVE('',#263,#281,#236,.T.);
#350=EDGE_CURVE('',#266,#282,#158,.T.);
#351=EDGE_CURVE('',#282,#277,#159,.T.);
#352=EDGE_CURVE('',#282,#283,#160,.T.);
#353=EDGE_CURVE('',#283,#276,#161,.T.);
#354=EDGE_CURVE('',#283,#284,#162,.T.);
#355=EDGE_CURVE('',#284,#275,#163,.T.);
#356=EDGE_CURVE('',#284,#255,#164,.T.);
#357=ORIENTED_EDGE('',*,*,#285,.F.);
#358=ORIENTED_EDGE('',*,*,#286,.T.);
#359=ORIENTED_EDGE('',*,*,#287,.T.);
#360=ORIENTED_EDGE('',*,*,#286,.F.);
#361=ORIENTED_EDGE('',*,*,#287,.F.);
#362=ORIENTED_EDGE('',*,*,#288,.F.);
#363=ORIENTED_EDGE('',*,*,#289,.F.);
#364=ORIENTED_EDGE('',*,*,#290,.T.);
#365=ORIENTED_EDGE('',*,*,#291,.T.);
#366=ORIENTED_EDGE('',*,*,#290,.F.);
#367=ORIENTED_EDGE('',*,*,#291,.F.);
#368=ORIENTED_EDGE('',*,*,#292,.F.);
#369=ORIENTED_EDGE('',*,*,#293,.F.);
#370=ORIENTED_EDGE('',*,*,#294,.T.);
#371=ORIENTED_EDGE('',*,*,#295,.T.);
#372=ORIENTED_EDGE('',*,*,#294,.F.);
#373=ORIENTED_EDGE('',*,*,#295,.F.);
#374=ORIENTED_EDGE('',*,*,#296,.F.);
#375=ORIENTED_EDGE('',*,*,#297,.F.);
#376=ORIENTED_EDGE('',*,*,#298,.T.);
#377=ORIENTED_EDGE('',*,*,#299,.T.);
#378=ORIENTED_EDGE('',*,*,#298,.F.);
#379=ORIENTED_EDGE('',*,*,#299,.F.);
#380=ORIENTED_EDGE('',*,*,#300,.F.);
#381=ORIENTED_EDGE('',*,*,#288,.T.);
#382=ORIENTED_EDGE('',*,*,#301,.T.);
#383=ORIENTED_EDGE('',*,*,#302,.F.);
#384=ORIENTED_EDGE('',*,*,#301,.F.);
#385=ORIENTED_EDGE('',*,*,#296,.T.);
#386=ORIENTED_EDGE('',*,*,#303,.T.);
#387=ORIENTED_EDGE('',*,*,#304,.F.);
#388=ORIENTED_EDGE('',*,*,#303,.F.);
#389=ORIENTED_EDGE('',*,*,#292,.T.);
#390=ORIENTED_EDGE('',*,*,#305,.T.);
#391=ORIENTED_EDGE('',*,*,#306,.F.);
#392=ORIENTED_EDGE('',*,*,#305,.F.);
#393=ORIENTED_EDGE('',*,*,#300,.T.);
#394=ORIENTED_EDGE('',*,*,#307,.T.);
#395=ORIENTED_EDGE('',*,*,#308,.F.);
#396=ORIENTED_EDGE('',*,*,#307,.F.);
#397=ORIENTED_EDGE('',*,*,#309,.F.);
#398=ORIENTED_EDGE('',*,*,#310,.T.);
#399=ORIENTED_EDGE('',*,*,#311,.F.);
#400=ORIENTED_EDGE('',*,*,#312,.F.);
#401=ORIENTED_EDGE('',*,*,#313,.F.);
#402=ORIENTED_EDGE('',*,*,#314,.F.);
#403=ORIENTED_EDGE('',*,*,#315,.F.);
#404=ORIENTED_EDGE('',*,*,#316,.F.);
#405=ORIENTED_EDGE('',*,*,#313,.T.);
#406=ORIENTED_EDGE('',*,*,#317,.T.);
#407=ORIENTED_EDGE('',*,*,#309,.T.);
#408=ORIENTED_EDGE('',*,*,#318,.F.);
#409=ORIENTED_EDGE('',*,*,#319,.F.);
#410=ORIENTED_EDGE('',*,*,#320,.F.);
#411=ORIENTED_EDGE('',*,*,#321,.F.);
#412=ORIENTED_EDGE('',*,*,#322,.F.);
#413=ORIENTED_EDGE('',*,*,#315,.T.);
#414=ORIENTED_EDGE('',*,*,#323,.F.);
#415=ORIENTED_EDGE('',*,*,#324,.F.);
#416=ORIENTED_EDGE('',*,*,#325,.F.);
#417=ORIENTED_EDGE('',*,*,#326,.T.);
#418=ORIENTED_EDGE('',*,*,#327,.T.);
#419=ORIENTED_EDGE('',*,*,#328,.T.);
#420=ORIENTED_EDGE('',*,*,#319,.T.);
#421=ORIENTED_EDGE('',*,*,#327,.F.);
#422=ORIENTED_EDGE('',*,*,#329,.F.);
#423=ORIENTED_EDGE('',*,*,#330,.F.);
#424=ORIENTED_EDGE('',*,*,#331,.F.);
#425=ORIENTED_EDGE('',*,*,#314,.T.);
#426=ORIENTED_EDGE('',*,*,#322,.T.);
#427=ORIENTED_EDGE('',*,*,#332,.F.);
#428=ORIENTED_EDGE('',*,*,#333,.T.);
#429=ORIENTED_EDGE('',*,*,#334,.F.);
#430=ORIENTED_EDGE('',*,*,#335,.T.);
#431=ORIENTED_EDGE('',*,*,#336,.F.);
#432=ORIENTED_EDGE('',*,*,#329,.T.);
#433=ORIENTED_EDGE('',*,*,#326,.F.);
#434=ORIENTED_EDGE('',*,*,#318,.T.);
#435=ORIENTED_EDGE('',*,*,#312,.T.);
#436=ORIENTED_EDGE('',*,*,#337,.T.);
#437=ORIENTED_EDGE('',*,*,#338,.T.);
#438=ORIENTED_EDGE('',*,*,#339,.T.);
#439=ORIENTED_EDGE('',*,*,#340,.T.);
#440=ORIENTED_EDGE('',*,*,#323,.T.);
#441=ORIENTED_EDGE('',*,*,#302,.T.);
#442=ORIENTED_EDGE('',*,*,#304,.T.);
#443=ORIENTED_EDGE('',*,*,#306,.T.);
#444=ORIENTED_EDGE('',*,*,#308,.T.);
#445=ORIENTED_EDGE('',*,*,#336,.T.);
#446=ORIENTED_EDGE('',*,*,#341,.T.);
#447=ORIENTED_EDGE('',*,*,#342,.T.);
#448=ORIENTED_EDGE('',*,*,#330,.T.);
#449=ORIENTED_EDGE('',*,*,#341,.F.);
#450=ORIENTED_EDGE('',*,*,#335,.F.);
#451=ORIENTED_EDGE('',*,*,#343,.F.);
#452=ORIENTED_EDGE('',*,*,#344,.F.);
#453=ORIENTED_EDGE('',*,*,#334,.T.);
#454=ORIENTED_EDGE('',*,*,#345,.T.);
#455=ORIENTED_EDGE('',*,*,#346,.T.);
#456=ORIENTED_EDGE('',*,*,#343,.T.);
#457=ORIENTED_EDGE('',*,*,#345,.F.);
#458=ORIENTED_EDGE('',*,*,#333,.F.);
#459=ORIENTED_EDGE('',*,*,#347,.F.);
#460=ORIENTED_EDGE('',*,*,#348,.F.);
#461=ORIENTED_EDGE('',*,*,#332,.T.);
#462=ORIENTED_EDGE('',*,*,#321,.T.);
#463=ORIENTED_EDGE('',*,*,#349,.T.);
#464=ORIENTED_EDGE('',*,*,#347,.T.);
#465=ORIENTED_EDGE('',*,*,#350,.F.);
#466=ORIENTED_EDGE('',*,*,#324,.T.);
#467=ORIENTED_EDGE('',*,*,#340,.F.);
#468=ORIENTED_EDGE('',*,*,#351,.F.);
#469=ORIENTED_EDGE('',*,*,#352,.F.);
#470=ORIENTED_EDGE('',*,*,#351,.T.);
#471=ORIENTED_EDGE('',*,*,#339,.F.);
#472=ORIENTED_EDGE('',*,*,#353,.F.);
#473=ORIENTED_EDGE('',*,*,#354,.F.);
#474=ORIENTED_EDGE('',*,*,#353,.T.);
#475=ORIENTED_EDGE('',*,*,#338,.F.);
#476=ORIENTED_EDGE('',*,*,#355,.F.);
#477=ORIENTED_EDGE('',*,*,#311,.T.);
#478=ORIENTED_EDGE('',*,*,#356,.F.);
#479=ORIENTED_EDGE('',*,*,#355,.T.);
#480=ORIENTED_EDGE('',*,*,#337,.F.);
#481=ORIENTED_EDGE('',*,*,#350,.T.);
#482=ORIENTED_EDGE('',*,*,#352,.T.);
#483=ORIENTED_EDGE('',*,*,#354,.T.);
#484=ORIENTED_EDGE('',*,*,#356,.T.);
#485=ORIENTED_EDGE('',*,*,#310,.F.);
#486=ORIENTED_EDGE('',*,*,#317,.F.);
#487=ORIENTED_EDGE('',*,*,#316,.T.);
#488=ORIENTED_EDGE('',*,*,#325,.T.);
#489=ORIENTED_EDGE('',*,*,#328,.F.);
#490=ORIENTED_EDGE('',*,*,#331,.T.);
#491=ORIENTED_EDGE('',*,*,#342,.F.);
#492=ORIENTED_EDGE('',*,*,#344,.T.);
#493=ORIENTED_EDGE('',*,*,#346,.F.);
#494=ORIENTED_EDGE('',*,*,#348,.T.);
#495=ORIENTED_EDGE('',*,*,#349,.F.);
#496=ORIENTED_EDGE('',*,*,#320,.T.);
#497=ORIENTED_EDGE('',*,*,#285,.T.);
#498=ORIENTED_EDGE('',*,*,#289,.T.);
#499=ORIENTED_EDGE('',*,*,#293,.T.);
#500=ORIENTED_EDGE('',*,*,#297,.T.);
#501=(
BOUNDED_SURFACE()
B_SPLINE_SURFACE(1,2,((#734,#735,#736,#737,#738,#739,#740,#741,#742),(#743,
#744,#745,#746,#747,#748,#749,#750,#751)),.UNSPECIFIED.,.F.,.T.,.F.)
B_SPLINE_SURFACE_WITH_KNOTS((2,2),(3,2,2,2,3),(0.,1.73611760725532),(-3.14159265358979,
-1.5707963267949,0.,1.5707963267949,3.14159265358979),.UNSPECIFIED.)
GEOMETRIC_REPRESENTATION_ITEM()
RATIONAL_B_SPLINE_SURFACE(((1.,0.707106781186548,1.,0.707106781186548,1.,
0.707106781186548,1.,0.707106781186548,1.),(1.,0.707106781186548,1.,0.707106781186548,
1.,0.707106781186548,1.,0.707106781186548,1.)))
REPRESENTATION_ITEM('')
SURFACE()
);
#502=(
BOUNDED_SURFACE()
B_SPLINE_SURFACE(1,2,((#760,#761,#762,#763,#764,#765,#766,#767,#768),(#769,
#770,#771,#772,#773,#774,#775,#776,#777)),.UNSPECIFIED.,.F.,.T.,.F.)
B_SPLINE_SURFACE_WITH_KNOTS((2,2),(3,2,2,2,3),(0.,1.73611760725533),(-3.14159265358979,
-1.5707963267949,0.,1.5707963267949,3.14159265358979),.UNSPECIFIED.)
GEOMETRIC_REPRESENTATION_ITEM()
RATIONAL_B_SPLINE_SURFACE(((1.,0.707106781186548,1.,0.707106781186548,1.,
0.707106781186548,1.,0.707106781186548,1.),(1.,0.707106781186548,1.,0.707106781186548,
1.,0.707106781186548,1.,0.707106781186548,1.)))
REPRESENTATION_ITEM('')
SURFACE()
);
#503=(
BOUNDED_SURFACE()
B_SPLINE_SURFACE(1,2,((#786,#787,#788,#789,#790,#791,#792,#793,#794),(#795,
#796,#797,#798,#799,#800,#801,#802,#803)),.UNSPECIFIED.,.F.,.T.,.F.)
B_SPLINE_SURFACE_WITH_KNOTS((2,2),(3,2,2,2,3),(0.,1.73611760725532),(-3.14159265358979,
-1.5707963267949,0.,1.5707963267949,3.14159265358979),.UNSPECIFIED.)
GEOMETRIC_REPRESENTATION_ITEM()
RATIONAL_B_SPLINE_SURFACE(((1.,0.707106781186548,1.,0.707106781186548,1.,
0.707106781186548,1.,0.707106781186548,1.),(1.,0.707106781186548,1.,0.707106781186548,
1.,0.707106781186548,1.,0.707106781186548,1.)))
REPRESENTATION_ITEM('')
SURFACE()
);
#504=(
BOUNDED_SURFACE()
B_SPLINE_SURFACE(1,2,((#812,#813,#814,#815,#816,#817,#818,#819,#820),(#821,
#822,#823,#824,#825,#826,#827,#828,#829)),.UNSPECIFIED.,.F.,.T.,.F.)
B_SPLINE_SURFACE_WITH_KNOTS((2,2),(3,2,2,2,3),(0.,1.73611760725533),(-3.14159265358979,
-1.5707963267949,0.,1.5707963267949,3.14159265358979),.UNSPECIFIED.)
GEOMETRIC_REPRESENTATION_ITEM()
RATIONAL_B_SPLINE_SURFACE(((1.,0.707106781186548,1.,0.707106781186548,1.,
0.707106781186548,1.,0.707106781186548,1.),(1.,0.707106781186548,1.,0.707106781186548,
1.,0.707106781186548,1.,0.707106781186548,1.)))
REPRESENTATION_ITEM('')
SURFACE()
);
#505=(
BOUNDED_SURFACE()
B_SPLINE_SURFACE(1,2,((#838,#839,#840,#841,#842,#843,#844,#845,#846),(#847,
#848,#849,#850,#851,#852,#853,#854,#855)),.UNSPECIFIED.,.F.,.T.,.F.)
B_SPLINE_SURFACE_WITH_KNOTS((2,2),(3,2,2,2,3),(-5.3998363813897,0.),(-3.14159265358979,
-1.5707963267949,0.,1.5707963267949,3.14159265358979),.UNSPECIFIED.)
GEOMETRIC_REPRESENTATION_ITEM()
RATIONAL_B_SPLINE_SURFACE(((1.,0.707106781186548,1.,0.707106781186548,1.,
0.707106781186548,1.,0.707106781186548,1.),(1.,0.707106781186548,1.,0.707106781186548,
1.,0.707106781186548,1.,0.707106781186548,1.)))
REPRESENTATION_ITEM('')
SURFACE()
);
#506=(
BOUNDED_SURFACE()
B_SPLINE_SURFACE(1,2,((#859,#860,#861,#862,#863,#864,#865,#866,#867),(#868,
#869,#870,#871,#872,#873,#874,#875,#876)),.UNSPECIFIED.,.F.,.T.,.F.)
B_SPLINE_SURFACE_WITH_KNOTS((2,2),(3,2,2,2,3),(-5.3998363813897,0.),(-3.14159265358979,
-1.5707963267949,0.,1.5707963267949,3.14159265358979),.UNSPECIFIED.)
GEOMETRIC_REPRESENTATION_ITEM()
RATIONAL_B_SPLINE_SURFACE(((1.,0.707106781186548,1.,0.707106781186548,1.,
0.707106781186548,1.,0.707106781186548,1.),(1.,0.707106781186548,1.,0.707106781186548,
1.,0.707106781186548,1.,0.707106781186548,1.)))
REPRESENTATION_ITEM('')
SURFACE()
);
#507=(
BOUNDED_SURFACE()
B_SPLINE_SURFACE(1,2,((#880,#881,#882,#883,#884,#885,#886,#887,#888),(#889,
#890,#891,#892,#893,#894,#895,#896,#897)),.UNSPECIFIED.,.F.,.T.,.F.)
B_SPLINE_SURFACE_WITH_KNOTS((2,2),(3,2,2,2,3),(-5.3998363813897,0.),(-3.14159265358979,
-1.5707963267949,0.,1.5707963267949,3.14159265358979),.UNSPECIFIED.)
GEOMETRIC_REPRESENTATION_ITEM()
RATIONAL_B_SPLINE_SURFACE(((1.,0.707106781186548,1.,0.707106781186548,1.,
0.707106781186548,1.,0.707106781186548,1.),(1.,0.707106781186548,1.,0.707106781186548,
1.,0.707106781186548,1.,0.707106781186548,1.)))
REPRESENTATION_ITEM('')
SURFACE()
);
#508=(
BOUNDED_SURFACE()
B_SPLINE_SURFACE(1,2,((#901,#902,#903,#904,#905,#906,#907,#908,#909),(#910,
#911,#912,#913,#914,#915,#916,#917,#918)),.UNSPECIFIED.,.F.,.T.,.F.)
B_SPLINE_SURFACE_WITH_KNOTS((2,2),(3,2,2,2,3),(-5.3998363813897,0.),(-3.14159265358979,
-1.5707963267949,0.,1.5707963267949,3.14159265358979),.UNSPECIFIED.)
GEOMETRIC_REPRESENTATION_ITEM()
RATIONAL_B_SPLINE_SURFACE(((1.,0.707106781186548,1.,0.707106781186548,1.,
0.707106781186548,1.,0.707106781186548,1.),(1.,0.707106781186548,1.,0.707106781186548,
1.,0.707106781186548,1.,0.707106781186548,1.)))
REPRESENTATION_ITEM('')
SURFACE()
);
#509=(
BOUNDED_SURFACE()
B_SPLINE_SURFACE(1,2,((#957,#958,#959),(#960,#961,#962)),.UNSPECIFIED.,
 .F.,.F.,.F.)
B_SPLINE_SURFACE_WITH_KNOTS((2,2),(3,3),(0.,2.6519196450825),(-3.14159265358979,
-1.5707963267949),.UNSPECIFIED.)
GEOMETRIC_REPRESENTATION_ITEM()
RATIONAL_B_SPLINE_SURFACE(((1.,0.707106781186547,1.),(1.,0.707106781186547,
1.)))
REPRESENTATION_ITEM('')
SURFACE()
);
#510=(
BOUNDED_SURFACE()
B_SPLINE_SURFACE(1,2,((#991,#992,#993),(#994,#995,#996)),.UNSPECIFIED.,
 .F.,.F.,.F.)
B_SPLINE_SURFACE_WITH_KNOTS((2,2),(3,3),(0.,2.6519196450825),(-1.5707963267949,
-6.42067358941656E-19),.UNSPECIFIED.)
GEOMETRIC_REPRESENTATION_ITEM()
RATIONAL_B_SPLINE_SURFACE(((1.,0.707106781186547,1.),(1.,0.707106781186547,
1.)))
REPRESENTATION_ITEM('')
SURFACE()
);
#511=(
BOUNDED_SURFACE()
B_SPLINE_SURFACE(1,2,((#1004,#1005,#1006),(#1007,#1008,#1009)),
 .UNSPECIFIED.,.F.,.F.,.F.)
B_SPLINE_SURFACE_WITH_KNOTS((2,2),(3,3),(0.,2.6519196450825),(-3.14159265358979,
-1.5707963267949),.UNSPECIFIED.)
GEOMETRIC_REPRESENTATION_ITEM()
RATIONAL_B_SPLINE_SURFACE(((1.,0.707106781186548,1.),(1.,0.707106781186548,
1.)))
REPRESENTATION_ITEM('')
SURFACE()
);
#512=(
BOUNDED_SURFACE()
B_SPLINE_SURFACE(1,2,((#1017,#1018,#1019),(#1020,#1021,#1022)),
 .UNSPECIFIED.,.F.,.F.,.F.)
B_SPLINE_SURFACE_WITH_KNOTS((2,2),(3,3),(0.,2.6519196450825),(-1.5707963267949,
-1.10701268783045E-16),.UNSPECIFIED.)
GEOMETRIC_REPRESENTATION_ITEM()
RATIONAL_B_SPLINE_SURFACE(((1.,0.707106781186547,1.),(1.,0.707106781186547,
1.)))
REPRESENTATION_ITEM('')
SURFACE()
);
#513=ADVANCED_FACE('',(#45),#501,.T.);
#514=ADVANCED_FACE('',(#46,#15),#27,.T.);
#515=ADVANCED_FACE('',(#47),#502,.T.);
#516=ADVANCED_FACE('',(#48,#16),#28,.T.);
#517=ADVANCED_FACE('',(#49),#503,.T.);
#518=ADVANCED_FACE('',(#50,#17),#29,.T.);
#519=ADVANCED_FACE('',(#51),#504,.T.);
#520=ADVANCED_FACE('',(#52,#18),#30,.T.);
#521=ADVANCED_FACE('',(#53),#505,.T.);
#522=ADVANCED_FACE('',(#54),#506,.T.);
#523=ADVANCED_FACE('',(#55),#507,.T.);
#524=ADVANCED_FACE('',(#56),#508,.T.);
#525=ADVANCED_FACE('',(#57),#31,.F.);
#526=ADVANCED_FACE('',(#58),#32,.F.);
#527=ADVANCED_FACE('',(#59),#33,.T.);
#528=ADVANCED_FACE('',(#60),#34,.T.);
#529=ADVANCED_FACE('',(#61),#509,.F.);
#530=ADVANCED_FACE('',(#62),#35,.T.);
#531=ADVANCED_FACE('',(#63,#19,#20,#21,#22),#36,.T.);
#532=ADVANCED_FACE('',(#64),#510,.F.);
#533=ADVANCED_FACE('',(#65),#37,.T.);
#534=ADVANCED_FACE('',(#66),#511,.F.);
#535=ADVANCED_FACE('',(#67),#38,.T.);
#536=ADVANCED_FACE('',(#68),#512,.F.);
#537=ADVANCED_FACE('',(#69),#39,.T.);
#538=ADVANCED_FACE('',(#70),#40,.T.);
#539=ADVANCED_FACE('',(#71),#41,.T.);
#540=ADVANCED_FACE('',(#72),#42,.T.);
#541=ADVANCED_FACE('',(#73),#43,.T.);
#542=ADVANCED_FACE('',(#74,#23,#24,#25,#26),#44,.F.);
#543=CLOSED_SHELL('',(#513,#514,#515,#516,#517,#518,#519,#520,#521,#522,
#523,#524,#525,#526,#527,#528,#529,#530,#531,#532,#533,#534,#535,#536,#537,
#538,#539,#540,#541,#542));
#544=DERIVED_UNIT_ELEMENT(#546,1.);
#545=DERIVED_UNIT_ELEMENT(#1045,-3.);
#546=(
MASS_UNIT()
NAMED_UNIT(*)
SI_UNIT(.KILO.,.GRAM.)
);
#547=DERIVED_UNIT((#544,#545));
#548=MEASURE_REPRESENTATION_ITEM('density measure',
POSITIVE_RATIO_MEASURE(7850.),#547);
#549=PROPERTY_DEFINITION_REPRESENTATION(#554,#551);
#550=PROPERTY_DEFINITION_REPRESENTATION(#555,#552);
#551=REPRESENTATION('material name',(#553),#1042);
#552=REPRESENTATION('density',(#548),#1042);
#553=DESCRIPTIVE_REPRESENTATION_ITEM('Steel','Steel');
#554=PROPERTY_DEFINITION('material property','material name',#1052);
#555=PROPERTY_DEFINITION('material property','density of part',#1052);
#556=AXIS2_PLACEMENT_3D('',#733,#599,#600);
#557=AXIS2_PLACEMENT_3D('',#753,#601,#602);
#558=AXIS2_PLACEMENT_3D('',#756,#604,#605);
#559=AXIS2_PLACEMENT_3D('',#757,#606,#607);
#560=AXIS2_PLACEMENT_3D('',#759,#608,#609);
#561=AXIS2_PLACEMENT_3D('',#779,#610,#611);
#562=AXIS2_PLACEMENT_3D('',#782,#613,#614);
#563=AXIS2_PLACEMENT_3D('',#783,#615,#616);
#564=AXIS2_PLACEMENT_3D('',#785,#617,#618);
#565=AXIS2_PLACEMENT_3D('',#805,#619,#620);
#566=AXIS2_PLACEMENT_3D('',#808,#622,#623);
#567=AXIS2_PLACEMENT_3D('',#809,#624,#625);
#568=AXIS2_PLACEMENT_3D('',#811,#626,#627);
#569=AXIS2_PLACEMENT_3D('',#831,#628,#629);
#570=AXIS2_PLACEMENT_3D('',#834,#631,#632);
#571=AXIS2_PLACEMENT_3D('',#835,#633,#634);
#572=AXIS2_PLACEMENT_3D('',#837,#635,#636);
#573=AXIS2_PLACEMENT_3D('',#858,#638,#639);
#574=AXIS2_PLACEMENT_3D('',#879,#641,#642);
#575=AXIS2_PLACEMENT_3D('',#900,#644,#645);
#576=AXIS2_PLACEMENT_3D('',#921,#647,#648);
#577=AXIS2_PLACEMENT_3D('',#922,#649,#650);
#578=AXIS2_PLACEMENT_3D('',#931,#655,#656);
#579=AXIS2_PLACEMENT_3D('',#940,#661,#662);
#580=AXIS2_PLACEMENT_3D('',#951,#669,#670);
#581=AXIS2_PLACEMENT_3D('',#964,#674,#675);
#582=AXIS2_PLACEMENT_3D('',#967,#677,#678);
#583=AXIS2_PLACEMENT_3D('',#968,#679,#680);
#584=AXIS2_PLACEMENT_3D('',#974,#684,#685);
#585=AXIS2_PLACEMENT_3D('',#976,#686,#687);
#586=AXIS2_PLACEMENT_3D('',#980,#689,#690);
#587=AXIS2_PLACEMENT_3D('',#983,#692,#693);
#588=AXIS2_PLACEMENT_3D('',#999,#699,#700);
#589=AXIS2_PLACEMENT_3D('',#1000,#701,#702);
#590=AXIS2_PLACEMENT_3D('',#1012,#706,#707);
#591=AXIS2_PLACEMENT_3D('',#1013,#708,#709);
#592=AXIS2_PLACEMENT_3D('',#1023,#712,#713);
#593=AXIS2_PLACEMENT_3D('',#1024,#714,#715);
#594=AXIS2_PLACEMENT_3D('',#1028,#718,#719);
#595=AXIS2_PLACEMENT_3D('',#1032,#722,#723);
#596=AXIS2_PLACEMENT_3D('',#1036,#726,#727);
#597=AXIS2_PLACEMENT_3D('',#1038,#729,#730);
#598=AXIS2_PLACEMENT_3D('',#1039,#731,#732);
#599=DIRECTION('axis',(0.,0.,1.));
#600=DIRECTION('refdir',(1.,0.,0.));
#601=DIRECTION('center_axis',(0.,1.,0.));
#602=DIRECTION('ref_axis',(1.,0.,0.));
#603=DIRECTION('',(0.,1.,0.));
#604=DIRECTION('center_axis',(0.,1.,0.));
#605=DIRECTION('ref_axis',(1.,0.,0.));
#606=DIRECTION('center_axis',(0.,-1.,0.));
#607=DIRECTION('ref_axis',(0.,0.,-1.));
#608=DIRECTION('center_axis',(0.,-1.,0.));
#609=DIRECTION('ref_axis',(-1.,0.,0.));
#610=DIRECTION('center_axis',(0.,1.,0.));
#611=DIRECTION('ref_axis',(1.,0.,0.));
#612=DIRECTION('',(0.,1.,0.));
#613=DIRECTION('center_axis',(0.,1.,0.));
#614=DIRECTION('ref_axis',(1.,0.,0.));
#615=DIRECTION('center_axis',(0.,-1.,0.));
#616=DIRECTION('ref_axis',(0.,0.,-1.));
#617=DIRECTION('center_axis',(0.,-1.,0.));
#618=DIRECTION('ref_axis',(-1.,0.,0.));
#619=DIRECTION('center_axis',(0.,1.,0.));
#620=DIRECTION('ref_axis',(1.,0.,0.));
#621=DIRECTION('',(0.,1.,0.));
#622=DIRECTION('center_axis',(0.,1.,0.));
#623=DIRECTION('ref_axis',(1.,0.,0.));
#624=DIRECTION('center_axis',(0.,-1.,0.));
#625=DIRECTION('ref_axis',(0.,0.,-1.));
#626=DIRECTION('center_axis',(0.,-1.,0.));
#627=DIRECTION('ref_axis',(-1.,0.,0.));
#628=DIRECTION('center_axis',(0.,1.,0.));
#629=DIRECTION('ref_axis',(1.,0.,0.));
#630=DIRECTION('',(0.,1.,0.));
#631=DIRECTION('center_axis',(0.,1.,0.));
#632=DIRECTION('ref_axis',(1.,0.,0.));
#633=DIRECTION('center_axis',(0.,-1.,0.));
#634=DIRECTION('ref_axis',(0.,0.,-1.));
#635=DIRECTION('center_axis',(0.,-1.,0.));
#636=DIRECTION('ref_axis',(-1.,0.,0.));
#637=DIRECTION('',(0.,1.,0.));
#638=DIRECTION('center_axis',(0.,-1.,0.));
#639=DIRECTION('ref_axis',(-1.,0.,0.));
#640=DIRECTION('',(0.,1.,0.));
#641=DIRECTION('center_axis',(0.,-1.,0.));
#642=DIRECTION('ref_axis',(-1.,0.,0.));
#643=DIRECTION('',(0.,1.,0.));
#644=DIRECTION('center_axis',(0.,-1.,0.));
#645=DIRECTION('ref_axis',(-1.,0.,0.));
#646=DIRECTION('',(0.,1.,0.));
#647=DIRECTION('center_axis',(0.,-1.,0.));
#648=DIRECTION('ref_axis',(-1.,0.,0.));
#649=DIRECTION('center_axis',(-1.,0.,0.));
#650=DIRECTION('ref_axis',(0.,0.,1.));
#651=DIRECTION('',(0.,1.,0.));
#652=DIRECTION('',(0.,0.,-1.));
#653=DIRECTION('',(0.,-1.,0.));
#654=DIRECTION('',(0.,0.,-1.));
#655=DIRECTION('center_axis',(1.,0.,0.));
#656=DIRECTION('ref_axis',(0.,0.,-1.));
#657=DIRECTION('',(0.,-1.,0.));
#658=DIRECTION('',(0.,0.,1.));
#659=DIRECTION('',(0.,1.,0.));
#660=DIRECTION('',(0.,0.,-1.));
#661=DIRECTION('center_axis',(0.,0.,1.));
#662=DIRECTION('ref_axis',(1.,0.,0.));
#663=DIRECTION('',(-1.,0.,0.));
#664=DIRECTION('',(1.,0.,0.));
#665=DIRECTION('',(0.,1.,0.));
#666=DIRECTION('',(-1.,0.,0.));
#667=DIRECTION('',(0.,-1.,0.));
#668=DIRECTION('',(1.,0.,0.));
#669=DIRECTION('center_axis',(0.,0.,-1.));
#670=DIRECTION('ref_axis',(-1.,0.,0.));
#671=DIRECTION('',(-1.,0.,0.));
#672=DIRECTION('',(0.,1.,0.));
#673=DIRECTION('',(1.,0.,0.));
#674=DIRECTION('center_axis',(0.,-1.,0.));
#675=DIRECTION('ref_axis',(-1.,0.,-1.10684714084558E-16));
#676=DIRECTION('',(0.,-1.,0.));
#677=DIRECTION('center_axis',(0.,1.,0.));
#678=DIRECTION('ref_axis',(1.,0.,1.10684714084558E-16));
#679=DIRECTION('center_axis',(-1.,0.,0.));
#680=DIRECTION('ref_axis',(0.,0.,1.));
#681=DIRECTION('',(0.,0.,1.));
#682=DIRECTION('',(0.,1.,0.));
#683=DIRECTION('',(0.,0.,-1.));
#684=DIRECTION('center_axis',(0.,1.,0.));
#685=DIRECTION('ref_axis',(0.,0.,1.));
#686=DIRECTION('center_axis',(0.,-1.,0.));
#687=DIRECTION('ref_axis',(-1.,0.,1.10684714084558E-16));
#688=DIRECTION('',(0.,0.,-1.));
#689=DIRECTION('center_axis',(0.,-1.,0.));
#690=DIRECTION('ref_axis',(1.,0.,1.10684714084558E-16));
#691=DIRECTION('',(-1.,0.,0.));
#692=DIRECTION('center_axis',(0.,-1.,0.));
#693=DIRECTION('ref_axis',(1.,0.,-1.10684714084558E-16));
#694=DIRECTION('',(-1.,0.,0.));
#695=DIRECTION('',(0.,0.,-1.));
#696=DIRECTION('',(1.,0.,0.));
#697=DIRECTION('',(0.,0.,1.));
#698=DIRECTION('',(0.,-1.,0.));
#699=DIRECTION('center_axis',(0.,1.,0.));
#700=DIRECTION('ref_axis',(-1.,0.,1.10684714084558E-16));
#701=DIRECTION('center_axis',(0.,0.,-1.));
#702=DIRECTION('ref_axis',(-1.,0.,0.));
#703=DIRECTION('',(0.,1.,0.));
#704=DIRECTION('',(1.,0.,0.));
#705=DIRECTION('',(0.,-1.,0.));
#706=DIRECTION('center_axis',(0.,1.,0.));
#707=DIRECTION('ref_axis',(-1.,0.,-1.10684714084558E-16));
#708=DIRECTION('center_axis',(1.,0.,0.));
#709=DIRECTION('ref_axis',(0.,0.,-1.));
#710=DIRECTION('',(0.,1.,0.));
#711=DIRECTION('',(0.,0.,1.));
#712=DIRECTION('center_axis',(0.,1.,0.));
#713=DIRECTION('ref_axis',(1.,0.,-1.10684714084558E-16));
#714=DIRECTION('center_axis',(-1.,0.,0.));
#715=DIRECTION('ref_axis',(0.,0.,1.));
#716=DIRECTION('',(0.,0.,-1.));
#717=DIRECTION('',(0.,1.,0.));
#718=DIRECTION('center_axis',(0.,0.,1.));
#719=DIRECTION('ref_axis',(1.,0.,0.));
#720=DIRECTION('',(-1.,0.,0.));
#721=DIRECTION('',(0.,1.,0.));
#722=DIRECTION('center_axis',(1.,0.,0.));
#723=DIRECTION('ref_axis',(0.,0.,-1.));
#724=DIRECTION('',(0.,0.,1.));
#725=DIRECTION('',(0.,1.,0.));
#726=DIRECTION('center_axis',(0.,0.,-1.));
#727=DIRECTION('ref_axis',(-1.,0.,0.));
#728=DIRECTION('',(1.,0.,0.));
#729=DIRECTION('center_axis',(0.,1.,0.));
#730=DIRECTION('ref_axis',(0.,0.,1.));
#731=DIRECTION('center_axis',(0.,1.,0.));
#732=DIRECTION('ref_axis',(0.,0.,1.));
#733=CARTESIAN_POINT('',(0.,0.,0.));
#734=CARTESIAN_POINT('Ctrl Pts',(-7.3724175,0.,-5.0145));
#735=CARTESIAN_POINT('Ctrl Pts',(-7.3724175,0.,-2.657685));
#736=CARTESIAN_POINT('Ctrl Pts',(-5.01525,0.,-2.657685));
#737=CARTESIAN_POINT('Ctrl Pts',(-2.6580825,0.,-2.657685));
#738=CARTESIAN_POINT('Ctrl Pts',(-2.6580825,0.,-5.0145));
#739=CARTESIAN_POINT('Ctrl Pts',(-2.6580825,0.,-7.371315));
#740=CARTESIAN_POINT('Ctrl Pts',(-5.01525,0.,-7.371315));
#741=CARTESIAN_POINT('Ctrl Pts',(-7.3724175,0.,-7.371315));
#742=CARTESIAN_POINT('Ctrl Pts',(-7.3724175,0.,-5.0145));
#743=CARTESIAN_POINT('Ctrl Pts',(-7.3724175,4.09232,-5.0145));
#744=CARTESIAN_POINT('Ctrl Pts',(-7.3724175,4.09232,-2.657685));
#745=CARTESIAN_POINT('Ctrl Pts',(-5.01525,4.09232,-2.657685));
#746=CARTESIAN_POINT('Ctrl Pts',(-2.6580825,4.09232,-2.657685));
#747=CARTESIAN_POINT('Ctrl Pts',(-2.6580825,4.09232,-5.0145));
#748=CARTESIAN_POINT('Ctrl Pts',(-2.6580825,4.09232,-7.371315));
#749=CARTESIAN_POINT('Ctrl Pts',(-5.01525,4.09232,-7.371315));
#750=CARTESIAN_POINT('Ctrl Pts',(-7.3724175,4.09232,-7.371315));
#751=CARTESIAN_POINT('Ctrl Pts',(-7.3724175,4.09232,-5.0145));
#752=CARTESIAN_POINT('',(-7.3724175,0.,-5.0145));
#753=CARTESIAN_POINT('Origin',(-5.01525,0.,-5.0145));
#754=CARTESIAN_POINT('',(-7.3724175,4.09232,-5.0145));
#755=CARTESIAN_POINT('',(-7.3724175,0.,-5.0145));
#756=CARTESIAN_POINT('Origin',(-5.01525,4.09232,-5.0145));
#757=CARTESIAN_POINT('Origin',(-5.01525,4.09232,-5.0145));
#758=CARTESIAN_POINT('',(-3.310065,4.09232,-5.0145));
#759=CARTESIAN_POINT('Origin',(-5.01525,4.09232,-5.0145));
#760=CARTESIAN_POINT('Ctrl Pts',(81.1968975,0.,-5.0145));
#761=CARTESIAN_POINT('Ctrl Pts',(81.1968975,0.,-2.65768500000002));
#762=CARTESIAN_POINT('Ctrl Pts',(83.554065,0.,-2.65768500000002));
#763=CARTESIAN_POINT('Ctrl Pts',(85.9112325,0.,-2.65768500000002));
#764=CARTESIAN_POINT('Ctrl Pts',(85.9112325,0.,-5.0145));
#765=CARTESIAN_POINT('Ctrl Pts',(85.9112325,0.,-7.37131499999998));
#766=CARTESIAN_POINT('Ctrl Pts',(83.554065,0.,-7.37131499999998));
#767=CARTESIAN_POINT('Ctrl Pts',(81.1968975,0.,-7.37131499999998));
#768=CARTESIAN_POINT('Ctrl Pts',(81.1968975,0.,-5.0145));
#769=CARTESIAN_POINT('Ctrl Pts',(81.1968975,4.09232,-5.0145));
#770=CARTESIAN_POINT('Ctrl Pts',(81.1968975,4.09232,-2.65768500000002));
#771=CARTESIAN_POINT('Ctrl Pts',(83.554065,4.09232,-2.65768500000002));
#772=CARTESIAN_POINT('Ctrl Pts',(85.9112325,4.09232,-2.65768500000002));
#773=CARTESIAN_POINT('Ctrl Pts',(85.9112325,4.09232,-5.0145));
#774=CARTESIAN_POINT('Ctrl Pts',(85.9112325,4.09232,-7.37131499999998));
#775=CARTESIAN_POINT('Ctrl Pts',(83.554065,4.09232,-7.37131499999998));
#776=CARTESIAN_POINT('Ctrl Pts',(81.1968975,4.09232,-7.37131499999998));
#777=CARTESIAN_POINT('Ctrl Pts',(81.1968975,4.09232,-5.0145));
#778=CARTESIAN_POINT('',(81.1968975,0.,-5.0145));
#779=CARTESIAN_POINT('Origin',(83.554065,0.,-5.0145));
#780=CARTESIAN_POINT('',(81.1968975,4.09232,-5.0145));
#781=CARTESIAN_POINT('',(81.1968975,0.,-5.0145));
#782=CARTESIAN_POINT('Origin',(83.554065,4.09232,-5.0145));
#783=CARTESIAN_POINT('Origin',(83.554065,4.09232,-5.0145));
#784=CARTESIAN_POINT('',(85.25925,4.09232,-5.0145));
#785=CARTESIAN_POINT('Origin',(83.554065,4.09232,-5.0145));
#786=CARTESIAN_POINT('Ctrl Pts',(-7.3724175,0.,88.55607));
#787=CARTESIAN_POINT('Ctrl Pts',(-7.3724175,0.,90.912885));
#788=CARTESIAN_POINT('Ctrl Pts',(-5.01525,0.,90.912885));
#789=CARTESIAN_POINT('Ctrl Pts',(-2.6580825,0.,90.912885));
#790=CARTESIAN_POINT('Ctrl Pts',(-2.6580825,0.,88.55607));
#791=CARTESIAN_POINT('Ctrl Pts',(-2.6580825,0.,86.199255));
#792=CARTESIAN_POINT('Ctrl Pts',(-5.01525,0.,86.199255));
#793=CARTESIAN_POINT('Ctrl Pts',(-7.3724175,0.,86.199255));
#794=CARTESIAN_POINT('Ctrl Pts',(-7.3724175,0.,88.55607));
#795=CARTESIAN_POINT('Ctrl Pts',(-7.3724175,4.09232,88.55607));
#796=CARTESIAN_POINT('Ctrl Pts',(-7.3724175,4.09232,90.912885));
#797=CARTESIAN_POINT('Ctrl Pts',(-5.01525,4.09232,90.912885));
#798=CARTESIAN_POINT('Ctrl Pts',(-2.6580825,4.09232,90.912885));
#799=CARTESIAN_POINT('Ctrl Pts',(-2.6580825,4.09232,88.55607));
#800=CARTESIAN_POINT('Ctrl Pts',(-2.6580825,4.09232,86.199255));
#801=CARTESIAN_POINT('Ctrl Pts',(-5.01525,4.09232,86.199255));
#802=CARTESIAN_POINT('Ctrl Pts',(-7.3724175,4.09232,86.199255));
#803=CARTESIAN_POINT('Ctrl Pts',(-7.3724175,4.09232,88.55607));
#804=CARTESIAN_POINT('',(-7.3724175,0.,88.55607));
#805=CARTESIAN_POINT('Origin',(-5.01525,0.,88.55607));
#806=CARTESIAN_POINT('',(-7.3724175,4.09232,88.55607));
#807=CARTESIAN_POINT('',(-7.3724175,0.,88.55607));
#808=CARTESIAN_POINT('Origin',(-5.01525,4.09232,88.55607));
#809=CARTESIAN_POINT('Origin',(-5.01525,4.09232,88.55607));
#810=CARTESIAN_POINT('',(-3.310065,4.09232,88.55607));
#811=CARTESIAN_POINT('Origin',(-5.01525,4.09232,88.55607));
#812=CARTESIAN_POINT('Ctrl Pts',(81.1968975,0.,88.55607));
#813=CARTESIAN_POINT('Ctrl Pts',(81.1968975,0.,90.912885));
#814=CARTESIAN_POINT('Ctrl Pts',(83.554065,0.,90.912885));
#815=CARTESIAN_POINT('Ctrl Pts',(85.9112325,0.,90.912885));
#816=CARTESIAN_POINT('Ctrl Pts',(85.9112325,0.,88.55607));
#817=CARTESIAN_POINT('Ctrl Pts',(85.9112325,0.,86.199255));
#818=CARTESIAN_POINT('Ctrl Pts',(83.554065,0.,86.199255));
#819=CARTESIAN_POINT('Ctrl Pts',(81.1968975,0.,86.199255));
#820=CARTESIAN_POINT('Ctrl Pts',(81.1968975,0.,88.55607));
#821=CARTESIAN_POINT('Ctrl Pts',(81.1968975,4.09232,88.55607));
#822=CARTESIAN_POINT('Ctrl Pts',(81.1968975,4.09232,90.912885));
#823=CARTESIAN_POINT('Ctrl Pts',(83.554065,4.09232,90.912885));
#824=CARTESIAN_POINT('Ctrl Pts',(85.9112325,4.09232,90.912885));
#825=CARTESIAN_POINT('Ctrl Pts',(85.9112325,4.09232,88.55607));
#826=CARTESIAN_POINT('Ctrl Pts',(85.9112325,4.09232,86.199255));
#827=CARTESIAN_POINT('Ctrl Pts',(83.554065,4.09232,86.199255));
#828=CARTESIAN_POINT('Ctrl Pts',(81.1968975,4.09232,86.199255));
#829=CARTESIAN_POINT('Ctrl Pts',(81.1968975,4.09232,88.55607));
#830=CARTESIAN_POINT('',(81.1968975,0.,88.55607));
#831=CARTESIAN_POINT('Origin',(83.554065,0.,88.55607));
#832=CARTESIAN_POINT('',(81.1968975,4.09232,88.55607));
#833=CARTESIAN_POINT('',(81.1968975,0.,88.55607));
#834=CARTESIAN_POINT('Origin',(83.554065,4.09232,88.55607));
#835=CARTESIAN_POINT('Origin',(83.554065,4.09232,88.55607));
#836=CARTESIAN_POINT('',(85.25925,4.09232,88.55607));
#837=CARTESIAN_POINT('Origin',(83.554065,4.09232,88.55607));
#838=CARTESIAN_POINT('Ctrl Pts',(-3.310065,4.09232,-5.0145));
#839=CARTESIAN_POINT('Ctrl Pts',(-3.310065,4.09232,-6.71943));
#840=CARTESIAN_POINT('Ctrl Pts',(-5.01525,4.09232,-6.71943));
#841=CARTESIAN_POINT('Ctrl Pts',(-6.720435,4.09232,-6.71943));
#842=CARTESIAN_POINT('Ctrl Pts',(-6.720435,4.09232,-5.0145));
#843=CARTESIAN_POINT('Ctrl Pts',(-6.720435,4.09232,-3.30957));
#844=CARTESIAN_POINT('Ctrl Pts',(-5.01525,4.09232,-3.30957));
#845=CARTESIAN_POINT('Ctrl Pts',(-3.310065,4.09232,-3.30957));
#846=CARTESIAN_POINT('Ctrl Pts',(-3.310065,4.09232,-5.0145));
#847=CARTESIAN_POINT('Ctrl Pts',(-3.310065,13.30004,-5.0145));
#848=CARTESIAN_POINT('Ctrl Pts',(-3.310065,13.30004,-6.71943));
#849=CARTESIAN_POINT('Ctrl Pts',(-5.01525,13.30004,-6.71943));
#850=CARTESIAN_POINT('Ctrl Pts',(-6.720435,13.30004,-6.71943));
#851=CARTESIAN_POINT('Ctrl Pts',(-6.720435,13.30004,-5.0145));
#852=CARTESIAN_POINT('Ctrl Pts',(-6.720435,13.30004,-3.30957));
#853=CARTESIAN_POINT('Ctrl Pts',(-5.01525,13.30004,-3.30957));
#854=CARTESIAN_POINT('Ctrl Pts',(-3.310065,13.30004,-3.30957));
#855=CARTESIAN_POINT('Ctrl Pts',(-3.310065,13.30004,-5.0145));
#856=CARTESIAN_POINT('',(-3.310065,13.30004,-5.0145));
#857=CARTESIAN_POINT('',(-3.310065,13.30004,-5.0145));
#858=CARTESIAN_POINT('Origin',(-5.01525,13.30004,-5.0145));
#859=CARTESIAN_POINT('Ctrl Pts',(-3.310065,4.09232,88.55607));
#860=CARTESIAN_POINT('Ctrl Pts',(-3.310065,4.09232,86.85114));
#861=CARTESIAN_POINT('Ctrl Pts',(-5.01525,4.09232,86.85114));
#862=CARTESIAN_POINT('Ctrl Pts',(-6.720435,4.09232,86.85114));
#863=CARTESIAN_POINT('Ctrl Pts',(-6.720435,4.09232,88.55607));
#864=CARTESIAN_POINT('Ctrl Pts',(-6.720435,4.09232,90.261));
#865=CARTESIAN_POINT('Ctrl Pts',(-5.01525,4.09232,90.261));
#866=CARTESIAN_POINT('Ctrl Pts',(-3.310065,4.09232,90.261));
#867=CARTESIAN_POINT('Ctrl Pts',(-3.310065,4.09232,88.55607));
#868=CARTESIAN_POINT('Ctrl Pts',(-3.310065,13.30004,88.55607));
#869=CARTESIAN_POINT('Ctrl Pts',(-3.310065,13.30004,86.85114));
#870=CARTESIAN_POINT('Ctrl Pts',(-5.01525,13.30004,86.85114));
#871=CARTESIAN_POINT('Ctrl Pts',(-6.720435,13.30004,86.85114));
#872=CARTESIAN_POINT('Ctrl Pts',(-6.720435,13.30004,88.55607));
#873=CARTESIAN_POINT('Ctrl Pts',(-6.720435,13.30004,90.261));
#874=CARTESIAN_POINT('Ctrl Pts',(-5.01525,13.30004,90.261));
#875=CARTESIAN_POINT('Ctrl Pts',(-3.310065,13.30004,90.261));
#876=CARTESIAN_POINT('Ctrl Pts',(-3.310065,13.30004,88.55607));
#877=CARTESIAN_POINT('',(-3.310065,13.30004,88.55607));
#878=CARTESIAN_POINT('',(-3.310065,13.30004,88.55607));
#879=CARTESIAN_POINT('Origin',(-5.01525,13.30004,88.55607));
#880=CARTESIAN_POINT('Ctrl Pts',(85.25925,4.09232,-5.0145));
#881=CARTESIAN_POINT('Ctrl Pts',(85.25925,4.09232,-6.71943));
#882=CARTESIAN_POINT('Ctrl Pts',(83.554065,4.09232,-6.71943));
#883=CARTESIAN_POINT('Ctrl Pts',(81.84888,4.09232,-6.71943));
#884=CARTESIAN_POINT('Ctrl Pts',(81.84888,4.09232,-5.0145));
#885=CARTESIAN_POINT('Ctrl Pts',(81.84888,4.09232,-3.30957));
#886=CARTESIAN_POINT('Ctrl Pts',(83.554065,4.09232,-3.30957));
#887=CARTESIAN_POINT('Ctrl Pts',(85.25925,4.09232,-3.30957));
#888=CARTESIAN_POINT('Ctrl Pts',(85.25925,4.09232,-5.0145));
#889=CARTESIAN_POINT('Ctrl Pts',(85.25925,13.30004,-5.0145));
#890=CARTESIAN_POINT('Ctrl Pts',(85.25925,13.30004,-6.71943));
#891=CARTESIAN_POINT('Ctrl Pts',(83.554065,13.30004,-6.71943));
#892=CARTESIAN_POINT('Ctrl Pts',(81.84888,13.30004,-6.71943));
#893=CARTESIAN_POINT('Ctrl Pts',(81.84888,13.30004,-5.0145));
#894=CARTESIAN_POINT('Ctrl Pts',(81.84888,13.30004,-3.30957));
#895=CARTESIAN_POINT('Ctrl Pts',(83.554065,13.30004,-3.30957));
#896=CARTESIAN_POINT('Ctrl Pts',(85.25925,13.30004,-3.30957));
#897=CARTESIAN_POINT('Ctrl Pts',(85.25925,13.30004,-5.0145));
#898=CARTESIAN_POINT('',(85.25925,13.30004,-5.0145));
#899=CARTESIAN_POINT('',(85.25925,13.30004,-5.0145));
#900=CARTESIAN_POINT('Origin',(83.554065,13.30004,-5.0145));
#901=CARTESIAN_POINT('Ctrl Pts',(85.25925,4.09232,88.55607));
#902=CARTESIAN_POINT('Ctrl Pts',(85.25925,4.09232,86.85114));
#903=CARTESIAN_POINT('Ctrl Pts',(83.554065,4.09232,86.85114));
#904=CARTESIAN_POINT('Ctrl Pts',(81.84888,4.09232,86.85114));
#905=CARTESIAN_POINT('Ctrl Pts',(81.84888,4.09232,88.55607));
#906=CARTESIAN_POINT('Ctrl Pts',(81.84888,4.09232,90.261));
#907=CARTESIAN_POINT('Ctrl Pts',(83.554065,4.09232,90.261));
#908=CARTESIAN_POINT('Ctrl Pts',(85.25925,4.09232,90.261));
#909=CARTESIAN_POINT('Ctrl Pts',(85.25925,4.09232,88.55607));
#910=CARTESIAN_POINT('Ctrl Pts',(85.25925,13.30004,88.55607));
#911=CARTESIAN_POINT('Ctrl Pts',(85.25925,13.30004,86.85114));
#912=CARTESIAN_POINT('Ctrl Pts',(83.554065,13.30004,86.85114));
#913=CARTESIAN_POINT('Ctrl Pts',(81.84888,13.30004,86.85114));
#914=CARTESIAN_POINT('Ctrl Pts',(81.84888,13.30004,88.55607));
#915=CARTESIAN_POINT('Ctrl Pts',(81.84888,13.30004,90.261));
#916=CARTESIAN_POINT('Ctrl Pts',(83.554065,13.30004,90.261));
#917=CARTESIAN_POINT('Ctrl Pts',(85.25925,13.30004,90.261));
#918=CARTESIAN_POINT('Ctrl Pts',(85.25925,13.30004,88.55607));
#919=CARTESIAN_POINT('',(85.25925,13.30004,88.55607));
#920=CARTESIAN_POINT('',(85.25925,13.30004,88.55607));
#921=CARTESIAN_POINT('Origin',(83.554065,13.30004,88.55607));
#922=CARTESIAN_POINT('Origin',(59.480865,3.0692398475492,93.57057));
#923=CARTESIAN_POINT('',(59.480865,3.06923984816932,93.57057));
#924=CARTESIAN_POINT('',(59.480865,13.30004,93.57057));
#925=CARTESIAN_POINT('',(59.480865,1.5346199237746,93.57057));
#926=CARTESIAN_POINT('',(59.480865,3.06923992408103,83.54157));
#927=CARTESIAN_POINT('',(59.480865,3.0692398475492,93.57057));
#928=CARTESIAN_POINT('',(59.480865,13.30004,83.54157));
#929=CARTESIAN_POINT('',(59.480865,3.0692399237746,83.54157));
#930=CARTESIAN_POINT('',(59.480865,13.30004,67.6706775));
#931=CARTESIAN_POINT('Origin',(71.517465,13.30004,93.57057));
#932=CARTESIAN_POINT('',(71.517465,13.30004,93.57057));
#933=CARTESIAN_POINT('',(71.517465,3.06923984816932,93.57057));
#934=CARTESIAN_POINT('',(71.517465,6.65002,93.57057));
#935=CARTESIAN_POINT('',(71.517465,13.30004,83.54157));
#936=CARTESIAN_POINT('',(71.517465,13.30004,67.6706775));
#937=CARTESIAN_POINT('',(71.517465,3.06923992408103,83.54157));
#938=CARTESIAN_POINT('',(71.517465,8.18464,83.54157));
#939=CARTESIAN_POINT('',(71.517465,3.0692398475492,93.57057));
#940=CARTESIAN_POINT('Origin',(-10.0305,0.,93.57057));
#941=CARTESIAN_POINT('',(30.7434825,3.0692398475492,93.57057));
#942=CARTESIAN_POINT('',(-5.01525,13.30004,93.57057));
#943=CARTESIAN_POINT('',(-10.0305,13.30004,93.57057));
#944=CARTESIAN_POINT('',(-5.01525,0.,93.57057));
#945=CARTESIAN_POINT('',(-5.01525,0.,93.57057));
#946=CARTESIAN_POINT('',(83.554065,0.,93.57057));
#947=CARTESIAN_POINT('',(88.569315,0.,93.57057));
#948=CARTESIAN_POINT('',(83.554065,13.30004,93.57057));
#949=CARTESIAN_POINT('',(83.554065,0.,93.57057));
#950=CARTESIAN_POINT('',(-10.0305,13.30004,93.57057));
#951=CARTESIAN_POINT('Origin',(78.538815,3.06924,83.54157));
#952=CARTESIAN_POINT('',(78.538815,13.30004,83.54157));
#953=CARTESIAN_POINT('',(78.538815,13.30004,83.54157));
#954=CARTESIAN_POINT('',(78.538815,3.06924,83.54157));
#955=CARTESIAN_POINT('',(78.538815,3.06924,83.54157));
#956=CARTESIAN_POINT('',(58.90411125,3.06924,83.54157));
#957=CARTESIAN_POINT('Ctrl Pts',(-10.0305,0.,88.55607));
#958=CARTESIAN_POINT('Ctrl Pts',(-10.0305,0.,93.57057));
#959=CARTESIAN_POINT('Ctrl Pts',(-5.01525,0.,93.57057));
#960=CARTESIAN_POINT('Ctrl Pts',(-10.0305,13.30004,88.55607));
#961=CARTESIAN_POINT('Ctrl Pts',(-10.0305,13.30004,93.57057));
#962=CARTESIAN_POINT('Ctrl Pts',(-5.01525,13.30004,93.57057));
#963=CARTESIAN_POINT('',(-10.0305,13.30004,88.55607));
#964=CARTESIAN_POINT('Origin',(-5.01525,13.30004,88.55607));
#965=CARTESIAN_POINT('',(-10.0305,0.,88.55607));
#966=CARTESIAN_POINT('',(-10.0305,0.,88.55607));
#967=CARTESIAN_POINT('Origin',(-5.01525,0.,88.55607));
#968=CARTESIAN_POINT('Origin',(-10.0305,0.,-10.029));
#969=CARTESIAN_POINT('',(-10.0305,13.30004,-5.0145));
#970=CARTESIAN_POINT('',(-10.0305,13.30004,-10.029));
#971=CARTESIAN_POINT('',(-10.0305,0.,-5.0145));
#972=CARTESIAN_POINT('',(-10.0305,0.,-5.0145));
#973=CARTESIAN_POINT('',(-10.0305,0.,93.57057));
#974=CARTESIAN_POINT('Origin',(39.2694075,13.30004,41.770785));
#975=CARTESIAN_POINT('',(88.569315,13.30004,88.55607));
#976=CARTESIAN_POINT('Origin',(83.554065,13.30004,88.55607));
#977=CARTESIAN_POINT('',(88.569315,13.30004,-5.0145));
#978=CARTESIAN_POINT('',(88.569315,13.30004,93.57057));
#979=CARTESIAN_POINT('',(83.554065,13.30004,-10.029));
#980=CARTESIAN_POINT('Origin',(83.554065,13.30004,-5.0145));
#981=CARTESIAN_POINT('',(-5.01525,13.30004,-10.029));
#982=CARTESIAN_POINT('',(88.569315,13.30004,-10.029));
#983=CARTESIAN_POINT('Origin',(-5.01525,13.30004,-5.0145));
#984=CARTESIAN_POINT('',(0.,13.30004,83.54157));
#985=CARTESIAN_POINT('',(78.538815,13.30004,83.54157));
#986=CARTESIAN_POINT('',(0.,13.30004,0.));
#987=CARTESIAN_POINT('',(0.,13.30004,83.54157));
#988=CARTESIAN_POINT('',(78.538815,13.30004,0.));
#989=CARTESIAN_POINT('',(0.,13.30004,0.));
#990=CARTESIAN_POINT('',(78.538815,13.30004,0.));
#991=CARTESIAN_POINT('Ctrl Pts',(-5.01525,0.,-10.029));
#992=CARTESIAN_POINT('Ctrl Pts',(-10.0305,0.,-10.029));
#993=CARTESIAN_POINT('Ctrl Pts',(-10.0305,0.,-5.0145));
#994=CARTESIAN_POINT('Ctrl Pts',(-5.01525,13.30004,-10.029));
#995=CARTESIAN_POINT('Ctrl Pts',(-10.0305,13.30004,-10.029));
#996=CARTESIAN_POINT('Ctrl Pts',(-10.0305,13.30004,-5.0145));
#997=CARTESIAN_POINT('',(-5.01525,0.,-10.029));
#998=CARTESIAN_POINT('',(-5.01525,0.,-10.029));
#999=CARTESIAN_POINT('Origin',(-5.01525,0.,-5.0145));
#1000=CARTESIAN_POINT('Origin',(88.569315,0.,-10.029));
#1001=CARTESIAN_POINT('',(83.554065,0.,-10.029));
#1002=CARTESIAN_POINT('',(83.554065,0.,-10.029));
#1003=CARTESIAN_POINT('',(-10.0305,0.,-10.029));
#1004=CARTESIAN_POINT('Ctrl Pts',(88.569315,0.,-5.0145));
#1005=CARTESIAN_POINT('Ctrl Pts',(88.569315,0.,-10.029));
#1006=CARTESIAN_POINT('Ctrl Pts',(83.554065,0.,-10.029));
#1007=CARTESIAN_POINT('Ctrl Pts',(88.569315,13.30004,-5.0145));
#1008=CARTESIAN_POINT('Ctrl Pts',(88.569315,13.30004,-10.029));
#1009=CARTESIAN_POINT('Ctrl Pts',(83.554065,13.30004,-10.029));
#1010=CARTESIAN_POINT('',(88.569315,0.,-5.0145));
#1011=CARTESIAN_POINT('',(88.569315,0.,-5.0145));
#1012=CARTESIAN_POINT('Origin',(83.554065,0.,-5.0145));
#1013=CARTESIAN_POINT('Origin',(88.569315,0.,93.57057));
#1014=CARTESIAN_POINT('',(88.569315,0.,88.55607));
#1015=CARTESIAN_POINT('',(88.569315,0.,88.55607));
#1016=CARTESIAN_POINT('',(88.569315,0.,-10.029));
#1017=CARTESIAN_POINT('Ctrl Pts',(83.554065,0.,93.57057));
#1018=CARTESIAN_POINT('Ctrl Pts',(88.569315,0.,93.57057));
#1019=CARTESIAN_POINT('Ctrl Pts',(88.569315,0.,88.55607));
#1020=CARTESIAN_POINT('Ctrl Pts',(83.554065,13.30004,93.57057));
#1021=CARTESIAN_POINT('Ctrl Pts',(88.569315,13.30004,93.57057));
#1022=CARTESIAN_POINT('Ctrl Pts',(88.569315,13.30004,88.55607));
#1023=CARTESIAN_POINT('Origin',(83.554065,0.,88.55607));
#1024=CARTESIAN_POINT('Origin',(78.538815,3.06924,0.));
#1025=CARTESIAN_POINT('',(78.538815,3.06924,0.));
#1026=CARTESIAN_POINT('',(78.538815,3.06924,20.8853925));
#1027=CARTESIAN_POINT('',(78.538815,3.06924,0.));
#1028=CARTESIAN_POINT('Origin',(0.,3.06924,0.));
#1029=CARTESIAN_POINT('',(0.,3.06924,0.));
#1030=CARTESIAN_POINT('',(19.63470375,3.06924,0.));
#1031=CARTESIAN_POINT('',(0.,3.06924,0.));
#1032=CARTESIAN_POINT('Origin',(0.,3.06924,83.54157));
#1033=CARTESIAN_POINT('',(0.,3.06924,83.54157));
#1034=CARTESIAN_POINT('',(0.,3.06924,62.6561775));
#1035=CARTESIAN_POINT('',(0.,3.06924,83.54157));
#1036=CARTESIAN_POINT('Origin',(78.538815,3.06924,83.54157));
#1037=CARTESIAN_POINT('',(58.90411125,3.06924,83.54157));
#1038=CARTESIAN_POINT('Origin',(39.2694075,3.06924,41.770785));
#1039=CARTESIAN_POINT('Origin',(39.2694075,0.,41.770785));
#1040=UNCERTAINTY_MEASURE_WITH_UNIT(LENGTH_MEASURE(0.01),#1044,
'DISTANCE_ACCURACY_VALUE',
'Maximum model space distance between geometric entities at asserted c
onnectivities');
#1041=UNCERTAINTY_MEASURE_WITH_UNIT(LENGTH_MEASURE(0.01),#1044,
'DISTANCE_ACCURACY_VALUE',
'Maximum model space distance between geometric entities at asserted c
onnectivities');
#1042=(
GEOMETRIC_REPRESENTATION_CONTEXT(3)
GLOBAL_UNCERTAINTY_ASSIGNED_CONTEXT((#1040))
GLOBAL_UNIT_ASSIGNED_CONTEXT((#1044,#1046,#1047))
REPRESENTATION_CONTEXT('','3D')
);
#1043=(
GEOMETRIC_REPRESENTATION_CONTEXT(3)
GLOBAL_UNCERTAINTY_ASSIGNED_CONTEXT((#1041))
GLOBAL_UNIT_ASSIGNED_CONTEXT((#1044,#1046,#1047))
REPRESENTATION_CONTEXT('','3D')
);
#1044=(
LENGTH_UNIT()
NAMED_UNIT(*)
SI_UNIT(.MILLI.,.METRE.)
);
#1045=(
LENGTH_UNIT()
NAMED_UNIT(*)
SI_UNIT($,.METRE.)
);
#1046=(
NAMED_UNIT(*)
PLANE_ANGLE_UNIT()
SI_UNIT($,.RADIAN.)
);
#1047=(
NAMED_UNIT(*)
SI_UNIT($,.STERADIAN.)
SOLID_ANGLE_UNIT()
);
#1048=SHAPE_DEFINITION_REPRESENTATION(#1049,#1050);
#1049=PRODUCT_DEFINITION_SHAPE('',$,#1052);
#1050=SHAPE_REPRESENTATION('',(#556),#1042);
#1051=PRODUCT_DEFINITION_CONTEXT('part definition',#1056,'design');
#1052=PRODUCT_DEFINITION('2026-06-07-13-13-15-053','Bottom v1',#1053,#1051);
#1053=PRODUCT_DEFINITION_FORMATION('',$,#1058);
#1054=PRODUCT_RELATED_PRODUCT_CATEGORY('Bottom v1','Bottom v1',(#1058));
#1055=APPLICATION_PROTOCOL_DEFINITION('international standard',
'automotive_design',2009,#1056);
#1056=APPLICATION_CONTEXT(
'Core Data for Automotive Mechanical Design Process');
#1057=PRODUCT_CONTEXT('part definition',#1056,'mechanical');
#1058=PRODUCT('2026-06-07-13-13-15-053','Bottom v1',$,(#1057));
#1059=PRESENTATION_STYLE_ASSIGNMENT((#1061));
#1060=PRESENTATION_STYLE_ASSIGNMENT((#1062));
#1061=SURFACE_STYLE_USAGE(.BOTH.,#1063);
#1062=SURFACE_STYLE_USAGE(.BOTH.,#1064);
#1063=SURFACE_SIDE_STYLE('',(#1065));
#1064=SURFACE_SIDE_STYLE('',(#1066));
#1065=SURFACE_STYLE_FILL_AREA(#1067);
#1066=SURFACE_STYLE_FILL_AREA(#1068);
#1067=FILL_AREA_STYLE('Plate',(#1069));
#1068=FILL_AREA_STYLE('DarkBlue',(#1070));
#1069=FILL_AREA_STYLE_COLOUR('Plate',#1071);
#1070=FILL_AREA_STYLE_COLOUR('DarkBlue',#1072);
#1071=COLOUR_RGB('Plate',0.6,0.6,0.6);
#1072=COLOUR_RGB('DarkBlue',0.0392156862745098,0.0980392156862745,0.352941176470588);
ENDSEC;
END-ISO-10303-21;
